<?xml version="1.0" encoding="utf-8"?>
<!-- Generator: Adobe Illustrator 19.2.1, SVG Export Plug-In . SVG Version: 6.00 Build 0)  -->
<svg version="1.1" id="Layer_1" xmlns="http://www.w3.org/2000/svg" xmlns:xlink="http://www.w3.org/1999/xlink" x="0px" y="0px"
	 viewBox="0 0 180.2 193.8" style="enable-background:new 0 0 180.2 193.8;" xml:space="preserve">
<style type="text/css">
	.st0{fill:#3498DB;}
	.st1{fill:#E74C3C;}
	.st2{fill:#2C3E50;}
	.st3{fill:#1ABC9C;}
</style>
<g>
	<path class="st0" d="M27.5,166.4c0,3.2-3.4,5.8-7.5,5.8h-3.7c-4.1,0-7.5-2.6-7.5-5.8v-35.2c0-3.2,3.4-5.8,7.5-5.8H20
		c4.1,0,7.5,2.6,7.5,5.8V166.4z"/>
	<path class="st0" d="M60.9,165.4c0,3.8-3.4,6.8-7.5,6.8h-3.7c-4.1,0-7.5-3.1-7.5-6.8v-41.1c0-3.8,3.3-6.8,7.5-6.8h3.7
		c4.1,0,7.5,3.1,7.5,6.8V165.4z"/>
	<path class="st0" d="M94.2,163.7c0,4.7-3.4,8.5-7.5,8.5H83c-4.1,0-7.5-3.8-7.5-8.5v-51.2c0-4.7,3.4-8.5,7.5-8.5h3.7
		c4.1,0,7.5,3.8,7.5,8.5V163.7z"/>
	<path class="st0" d="M127.9,161c0.1,6.1-3.1,11.1-7.3,11.2l-3.7,0c-4.1,0-7.6-4.9-7.7-11l-1.4-66.9c-0.1-6.1,3.1-11.1,7.2-11.2
		l3.7,0c4.1-0.1,7.6,4.9,7.7,11L127.9,161z"/>
	<path class="st1" d="M160.9,158c0,7.8-3.3,14.2-7.5,14.2h-3.7c-4.1,0-7.5-6.4-7.5-14.2V72.5c0-7.8,3.4-14.2,7.5-14.2h3.7
		c4.1,0,7.5,6.3,7.5,14.2V158z"/>
	<path class="st2" d="M169.3,186.3c0,4.1-3.4,7.5-7.5,7.5h-150c-4.1,0-7.5-3.3-7.5-7.5v-1.3c0-4.1,3.4-7.5,7.5-7.5h150
		c4.1,0,7.5,3.3,7.5,7.5V186.3z"/>
	<path class="st3" d="M175.7,37.5l-9.7-33c-0.5-1.7-1.6-3-3.1-3.8c-1.4-0.8-3.1-1.1-4.8-0.6l-33,9.6c-3.3,1-5.2,4.4-4.2,7.7l1.3,4.4
		c1,3.3,4.4,5.2,7.7,4.2l10.6-3.1C109.7,64.7,66.3,92.4,14.6,103c-4.7,0.9-8.1,5-7.5,9.5c0.1,0.5,0.1,0.8,0.2,1.4
		c0.6,4.5,5.4,7.6,10.5,6.7C74.7,109,122.7,78.2,156.2,31.9l3.1,10.4c1,3.3,4.4,5.2,7.7,4.2l4.4-1.3
		C174.7,44.3,176.6,40.8,175.7,37.5z"/>
</g>
</svg>
